# xmcd
#
# Track frame offsets: 
#        150
#        20346
#        34426
#        49352
#        66915
#        82843
#        97533
#        115709
#        134979
#        150665
#        166413
#        181531
#
# Disc length: 2571 seconds
#
# Revision: 0
# Processed by: cddbd v1.5.2PL0 Copyright (c) Steve Scherf et al.
# Submitted via: ExactAudioCopyFreeDBPlugin 1.0
#
DISCID=930a090c
DTITLE=Ryan Matthew - Driving Home
DYEAR=2008
DGENRE=Country
TTITLE0=Driving Home
TTITLE1=#1 Fan
TTITLE2=My Drinkin' Song
TTITLE3=Everything
TTITLE4=Jimmy Buffett Kinda Night
TTITLE5=Least That I Could Do
TTITLE6=Die Young
TTITLE7=Goodbye
TTITLE8=Tomorrow to Start Today
TTITLE9=I'll Do the Rest
TTITLE10=Outta Here
TTITLE11=Steeler Fan
EXTD=
EXTT0=
EXTT1=
EXTT2=
EXTT3=
EXTT4=
EXTT5=
EXTT6=
EXTT7=
EXTT8=
EXTT9=
EXTT10=
EXTT11=
PLAYORDER=
